# xmcd
#
# Track frame offsets:
#	150
#	15872
#	36367
#	59357
#	74382
#	92367
#	107517
#	124740
#	139190
#	157562
#	172657
#	192632
#	207245
#	224470
#	240772
#	262147
#	280430
#	297195
#	315490
#	330032
#
# Disc length: 4636 seconds
#
# Revision: 1
# Processed by: cddbd v1.4PL0 Copyright (c) Steve Scherf et al.
# Submitted via: audiograbber 1.82.02
#
DISCID=10121a14
DTITLE=Various Artist - Cream Of Country 6
DYEAR=1900
DGENRE=Country
TTITLE0=Brooks and Dunn - Every River
TTITLE1=Willie Nelson - Mendocino Country Line
TTITLE2=Alan Jackson - Where Were You (When The World Stopped Turning)
TTITLE3=Toby Keith - My List
TTITLE4=Martina McBride - Blessed
TTITLE5=Kenny Chesney - The Good Stuff
TTITLE6=Diamond Rio - Beautiful Mess
TTITLE7=Carolyn Dawn Johnson - One Day Closer To You
TTITLE8=George Strait - Run
TTITLE9=Alison Krauss - Let Me Touch You For A While
TTITLE10=Montgomery Gentry - My Town
TTITLE11=Brad Paisley - I`m Gonna Miss Her
TTITLE12=Lee Ann Womack - Something Worth Leaving Behind
TTITLE13=Lonestar - Unusually Unusual
TTITLE14=Travis Tritt - Modern Day Nonnie And Clyde
TTITLE15=Darryl Worley - I Miss My Friend
TTITLE16=Trisha Yearwood - I Would`ve Loved You Anyway
TTITLE17=The Warren Brothers - Where Does It Hurt
TTITLE18=Phil Vasser - American Child
TTITLE19=Sara Evans - I Keep Looking
EXTD=
EXTT0=
EXTT1=
EXTT2=
EXTT3=
EXTT4=
EXTT5=
EXTT6=
EXTT7=
EXTT8=
EXTT9=
EXTT10=
EXTT11=
EXTT12=
EXTT13=
EXTT14=
EXTT15=
EXTT16=
EXTT17=
EXTT18=
EXTT19=
PLAYORDER=
